<svg xmlns="http://www.w3.org/2000/svg" width="700" height="480" viewBox="0 0 700 480" role="img" aria-label="Mandalina Hindistan cevizli noodle">
  <defs>
    <linearGradient id="bg" x1="0" y1="0" x2="1" y2="1">
      <stop offset="0" stop-color="#f1e3d3"/>
      <stop offset="1" stop-color="#fffaf2"/>
    </linearGradient>
    <filter id="shadow" x="-20%" y="-20%" width="140%" height="140%">
      <feDropShadow dx="0" dy="16" stdDeviation="18" flood-color="#1b1b1b" flood-opacity=".18"/>
    </filter>
  </defs>
  <rect width="700" height="480" fill="url(#bg)"/>
  <circle cx="112" cy="94" r="72" fill="#7b2d26" opacity=".13"/>
  <circle cx="605" cy="390" r="92" fill="#7b2d26" opacity=".11"/>
  <g filter="url(#shadow)">
    <ellipse cx="350" cy="236" rx="176" ry="116" fill="#ffffff"/>
    <ellipse cx="350" cy="236" rx="128" ry="78" fill="#f1e3d3"/>
    <path d="M242 248c42-56 119-76 193-39 28 14 52 35 70 62-36 48-118 66-191 37-31-12-56-33-72-60z" fill="#7b2d26" opacity=".88"/>
    <circle cx="302" cy="214" r="18" fill="#fff7e8"/>
    <circle cx="362" cy="202" r="14" fill="#fff7e8"/>
    <circle cx="417" cy="229" r="16" fill="#fff7e8"/>
    <path d="M232 338h236" stroke="#164735" stroke-width="12" stroke-linecap="round" opacity=".16"/>
  </g>
  <text x="50" y="64" fill="#164735" font-family="Inter, Arial, sans-serif" font-size="21" font-weight="700" letter-spacing="2">RESERVE MENU</text>
  <text x="50" y="398" fill="#164735" font-family="Inter, Arial, sans-serif" font-size="31" font-weight="800">Mandalina Hindistan cevizli noodle</text>
  <text x="50" y="433" fill="#7b2d26" font-family="Inter, Arial, sans-serif" font-size="19" font-weight="700">Coconut Noodles</text>
</svg>